# xmcd
#
# Track frame offsets: 
#        150
#        17277
#        33359
#        48243
#        65739
#        94770
#        123586
#        139584
#        156913
#        175370
#        190219
#        208335
#        221136
#
# Disc length: 3089 seconds
#
# Revision: 0
# Processed by: cddbd v1.5.2PL0 Copyright (c) Steve Scherf et al.
# Submitted via: ExactAudioCopy v1.3
#
DISCID=be0c0f0d
DTITLE=Dennis Jones - Both Sides Of The Track
DYEAR=2016
DGENRE=Blues Rock
TTITLE0=Enjoy The Ride
TTITLE1=It All Depends
TTITLE2=Better Than Him
TTITLE3=Nobody's Slave
TTITLE4=Mr. Right
TTITLE5=The Machine
TTITLE6=Number Two
TTITLE7=Skin And Bone
TTITLE8=When You're Not Around
TTITLE9=What
TTITLE10=Shines On You
TTITLE11=I Can't Stop
TTITLE12=Lonely Joint
EXTD=
EXTT0=
EXTT1=
EXTT2=
EXTT3=
EXTT4=
EXTT5=
EXTT6=
EXTT7=
EXTT8=
EXTT9=
EXTT10=
EXTT11=
EXTT12=
PLAYORDER=
